<svg width="20" height="20" xmlns="http://www.w3.org/2000/svg"><defs><radialGradient cx="50%" cy="50%" fx="50%" fy="50%" r="50%" id="radialGradient-1"><stop stop-color="#AC2D73" offset="0%"/><stop stop-color="#120A82" offset="92%"/><stop stop-color="#07006B" offset="100%"/></radialGradient><radialGradient cx="50%" cy="50%" fx="50%" fy="50%" r="51.852%" gradientTransform="matrix(.96429 0 0 1 .018 0)" id="radialGradient-4"><stop stop-color="#FC429F" offset="17%"/><stop stop-color="#FC429F" stop-opacity=".4" offset="100%"/></radialGradient><linearGradient x1="0%" y1="49.995%" x2="100%" y2="49.995%" id="linearGradient-2"><stop stop-color="#FC429F" offset="0%"/><stop stop-color="#3B2EE8" stop-opacity=".2" offset="100%"/></linearGradient><linearGradient x1="100.044%" y1="50.005%" x2="0%" y2="50.005%" id="linearGradient-3"><stop stop-color="#FC429F" offset="0%"/><stop stop-color="#3B2EE8" stop-opacity=".2" offset="100%"/></linearGradient></defs><g id="Page-1" stroke="none" stroke-width="1" fill="none" fill-rule="evenodd"><g id="iPhone-8" transform="translate(-169 -536)"><g id="Group-2" transform="translate(51 536)"><g id="图-资源-15" transform="translate(118)"><circle id="Oval" fill="url('#radialGradient-1')" cx="10" cy="10" r="10"/><path d="M20 10h-1.315a8.685 8.685 0 0 0-17.37 0H0C0 4.477 4.477 0 10 0s10 4.477 10 10Z" id="Path" fill="url('#linearGradient-2')"/><path d="M10.004 20C4.482 19.994.006 15.52 0 10h1.315c0 4.794 3.889 8.68 8.685 8.68 4.796 0 8.685-3.886 8.685-8.68H20c-.006 5.517-4.476 9.99-9.996 10Z" id="Path" fill="url('#linearGradient-3')"/><ellipse id="Oval" fill="url('#radialGradient-4')" cx="9.63" cy="10" rx="5.185" ry="5"/></g></g></g></g></svg>